<svg width="17" height="15" viewBox="0 0 17 15" fill="none" xmlns="http://www.w3.org/2000/svg">
<path d="M2.14088 0.000327241C1.72415 0.008502 1.30704 0.168793 1.09041 0.45298L2.11391 6.2274C1.48476 6.67178 0.97009 7.19791 0.605525 7.78574C0.213249 8.41847 -0.000478049 9.12326 8.02894e-07 9.83558C-0.000478049 10.5479 0.213249 11.2527 0.605589 11.8854C0.998119 12.5185 1.56521 13.0811 2.26159 13.5459C2.95796 14.0107 3.78178 14.3766 4.67679 14.624C5.57179 14.8714 6.53527 15 7.50003 15C8.46476 15 9.42827 14.8714 10.3233 14.624C11.2183 14.3766 12.0431 14.0107 12.7395 13.5459C13.4358 13.081 14.0019 12.5185 14.3945 11.8854C14.7868 11.2527 15.0005 10.5489 15 9.83659C15.0005 9.12513 14.7869 8.42095 14.3955 7.78881L14.3945 7.78581C14.0297 7.19755 13.5148 6.67097 12.8851 6.22645L13.9077 0.45298C13.561 -0.00173278 12.7025 -0.136911 12.1509 0.156661L11.8236 2.33625H3.1744L2.84815 0.15568C2.64135 0.0455828 2.39091 -0.00457762 2.14088 0.000327241ZM3.41284 3.92729H11.5852L11.3637 5.40283C11.0239 5.26362 10.6765 5.14489 10.3232 5.04723C9.42824 4.79983 8.46476 4.67217 7.5 4.67217C6.53527 4.67217 5.57176 4.79983 4.67675 5.04723C4.32275 5.14514 3.97466 5.26421 3.63426 5.40384L3.41284 3.92729ZM7.50003 5.40993C8.41655 5.40993 9.33365 5.53255 10.1766 5.76556C10.5519 5.86932 10.9133 5.99462 11.254 6.13957L11.0017 7.8205H3.99643L3.74504 6.14059C4.08611 5.9954 4.44767 5.86945 4.82341 5.76553C5.66641 5.53255 6.58351 5.40993 7.50003 5.40993ZM12.7484 6.99894C13.228 7.36817 13.6115 7.78443 13.8797 8.21698C14.2062 8.74343 14.3661 9.29343 14.3656 9.83558C14.3662 10.3777 14.2062 10.9277 13.8797 11.4542C13.5533 11.9806 13.0566 12.4834 12.4232 12.9062C11.7898 13.329 11.0196 13.6726 10.1766 13.9056C9.33365 14.1386 8.41655 14.2612 7.50003 14.2612C6.58351 14.2612 5.66641 14.1386 4.82344 13.9056C3.98047 13.6726 3.21124 13.329 2.57782 12.9062C1.94446 12.4834 1.44677 11.9807 1.12032 11.4542C0.793873 10.9278 0.633937 10.3787 0.634511 9.83659C0.633937 9.29444 0.793873 8.74346 1.12032 8.21701C1.38832 7.78479 1.77156 7.36899 2.25064 6.99995L3.23426 12.5487C3.66172 12.8815 4.22568 13.0739 4.80949 13.2465L4.6688 12.3054H10.3292L10.1886 13.2465C10.7723 13.0739 11.3373 12.8815 11.7647 12.5486L12.7484 6.99894ZM4.16202 8.92507H10.836L10.4469 11.5257H4.55209L4.16202 8.92507Z" fill="#9985E4"/>
<path d="M12.0126 8.87891C12.0126 8.87891 12.6153 8.4094 13.5164 8.42661C14.8505 8.45277 15.1334 9.10472 15.1334 9.10472L15.3472 10.1388C15.3472 10.1388 15.7501 10.2613 15.8755 10.2744C16.0015 10.2875 16.2469 10.3549 16.5426 10.1422C16.8382 9.92878 16.7625 9.69333 16.9073 9.69953C17.0963 9.70779 16.9636 10.3584 16.8 10.5656C16.6364 10.7721 15.9063 11.1666 15.598 11.2506C15.2896 11.3346 15.195 11.4667 14.8746 11.4736C14.5535 11.4798 13.7483 11.2575 13.7483 11.2575L12.012 10.4176V8.87891H12.0126Z" fill="#96A820"/>
<path d="M12.6482 10.2359C12.6482 10.2359 12.9123 9.75123 13.3843 9.78978C13.8563 9.82833 14.0259 10.1712 14.0259 10.1712L12.9814 10.5202L12.6482 10.2359ZM15.0704 10.8631C15.4036 10.9732 15.5296 10.9601 15.5296 10.9601C15.5296 10.9601 15.7247 10.7467 15.8065 10.5656C15.8883 10.3846 15.8976 10.2813 15.8976 10.2813C15.8976 10.2813 15.7689 10.249 15.6489 10.2104C15.5296 10.1719 15.2903 10.0294 15.2903 10.0294L15.0134 10.8114L15.0704 10.8631Z" fill="#70853B"/>
<path d="M12.1448 4.0041C13.1263 4.05229 13.9737 4.9507 13.6834 6.12655C13.4662 7.00499 12.7106 8.16707 12.5222 8.46517C12.1763 9.01454 11.8049 10.0802 12.846 10.1938C14.335 10.3556 13.2355 9.5171 13.9636 9.00008C14.3457 8.72884 14.7808 8.8142 15.0611 9.02073C15.4264 9.2906 16.4434 12.1917 12.7207 11.99C11.947 11.948 11.3323 11.5101 10.9937 11.1755C9.99145 10.1869 10.7604 8.53883 10.8241 8.39426C10.9086 8.20081 11.701 7.14406 11.6447 6.80535C11.5884 6.46595 11.3142 6.55338 10.9367 6.41776C10.5593 6.28213 10.1403 5.85324 10.2569 5.26463C10.3655 4.71663 10.7772 3.93663 12.1448 4.0041Z" fill="#BED04A"/>
<path d="M14.9286 11.4909C14.9286 11.4909 15.111 11.3216 15.174 11.2699C15.237 11.2183 15.5293 10.9601 15.5293 10.9601C15.5293 10.9601 15.9939 10.9429 16.3157 10.8052C16.7153 10.6338 16.9479 10.2042 16.9794 10.0528C16.9962 9.97086 16.9385 10.7894 16.366 11.1866C15.8129 11.5701 14.9286 11.4909 14.9286 11.4909ZM10.2613 9.59153C10.2391 10.4541 10.9256 11.3629 11.521 11.6073C11.8515 11.7429 10.4637 11.0792 10.577 9.66382C10.6669 8.53823 11.771 7.57992 11.7945 6.94037C11.8086 6.55278 11.3413 6.51904 11.3413 6.51904C11.3413 6.51904 11.4861 6.63057 11.4921 6.77583C11.5015 7.00852 10.9162 7.86149 10.7936 8.03567C10.6722 8.21053 10.2807 8.85491 10.2613 9.59153Z" fill="#E4DDA2"/>
<path d="M10.4271 5.68115L10.7167 6.00403C10.7308 5.98406 10.4003 6.32828 10.0939 6.5596C9.88877 6.7145 9.25725 7.04632 9.22373 7.01328C9.18149 6.97128 9.37658 6.8391 9.48318 6.74203C9.5643 6.66837 9.76609 6.4818 9.76609 6.4818C9.76609 6.4818 9.51737 6.50934 9.39804 6.50934C9.2787 6.50934 8.97367 6.51898 9.00183 6.46115C9.02395 6.41571 9.46306 6.34412 9.62798 6.27527C10.1248 6.06874 10.4271 5.68115 10.4271 5.68115Z" fill="#EE6D33"/>
<path d="M11.6259 4.65798C11.4536 4.78121 11.286 4.75023 11.2317 4.64696C11.1915 4.56986 11.1801 4.42391 11.339 4.30068C11.4791 4.1919 11.6587 4.22495 11.7244 4.31858C11.7794 4.39775 11.7566 4.56504 11.6259 4.65798ZM12.4324 5.46069C12.2266 5.58461 12.0597 5.52059 11.9886 5.40837C11.9309 5.31681 11.9443 5.09651 12.1113 4.99737C12.2842 4.89411 12.476 4.93128 12.5497 5.05451C12.6114 5.15778 12.5893 5.36638 12.4324 5.46069Z" fill="#323234"/>
<path d="M13.221 6.60514C13.0983 6.89772 13.3437 7.03335 13.3437 7.03335C13.3437 7.03335 13.4395 6.82337 13.4804 6.72837C13.5307 6.61065 13.5797 6.46401 13.5797 6.46401C13.5797 6.46401 13.3189 6.37107 13.221 6.60514ZM13.0983 7.49804C13.0983 7.49804 12.9287 7.47876 12.7772 7.42507C12.6397 7.37619 12.4085 7.17723 12.2677 7.4347C12.1376 7.67221 12.3555 7.80302 12.5271 7.87599C12.6873 7.94415 12.8315 7.96824 12.8315 7.96824C12.8315 7.96824 12.9414 7.77892 12.9729 7.72591C13.0044 7.6729 13.0983 7.49804 13.0983 7.49804ZM12.5224 8.46598C12.5224 8.46598 12.2958 8.4529 12.1497 8.41435C12.0216 8.38062 11.7877 8.22021 11.6589 8.42881C11.5443 8.61468 11.7106 8.76201 11.9325 8.82121C12.1778 8.88662 12.3193 8.86734 12.3193 8.86734C12.3193 8.86734 12.3783 8.74411 12.4017 8.67595C12.4266 8.60642 12.5224 8.46598 12.5224 8.46598ZM12.1718 9.35062C12.1718 9.35062 11.8983 9.38917 11.7662 9.38917C11.6294 9.38917 11.2835 9.35613 11.2909 9.68314C11.2969 9.96402 11.6677 9.94061 11.7629 9.93855C11.8983 9.9351 12.2516 9.8697 12.2516 9.8697C12.2516 9.8697 12.1912 9.75955 12.1738 9.60534C12.1604 9.49244 12.1718 9.35062 12.1718 9.35062ZM12.4467 10.0714C12.4467 10.0714 12.4024 10.2759 12.3381 10.4253C12.267 10.5898 12.1021 10.8714 12.4373 11.0022C12.747 11.1233 12.8717 10.8955 12.928 10.6387C12.9803 10.3998 12.9843 10.205 12.9843 10.205C12.9843 10.205 12.8208 10.1974 12.6853 10.1657C12.5767 10.1389 12.4467 10.0714 12.4467 10.0714ZM13.4992 10.1699C13.4992 10.1699 13.7211 10.3688 13.7915 10.47C13.8626 10.5719 14.0241 10.879 14.2822 10.7461C14.5088 10.6297 14.3258 10.2745 14.2159 10.1451C14.124 10.037 13.9846 9.91927 13.8525 9.84148C13.764 9.78984 13.6889 9.77676 13.6889 9.77676C13.6889 9.77676 13.7043 9.91858 13.6635 10.0191C13.6205 10.1272 13.4992 10.1699 13.4992 10.1699ZM13.7922 9.49932C13.815 9.57918 13.8827 9.58262 14.0328 9.5186C14.1931 9.45044 14.4103 9.41671 14.59 9.41671C14.8025 9.41671 15.0096 9.56197 15.0854 9.62531C15.1611 9.68864 15.2523 9.71067 15.2664 9.58951C15.2805 9.46834 15.1953 9.33272 15.0304 9.21156C14.9298 9.13789 14.7502 9.0243 14.5383 9.01948C14.3124 9.01466 14.1039 9.09728 13.9718 9.18402C13.89 9.23841 13.754 9.36852 13.7922 9.49932Z" fill="#E4DDA2"/>
</svg>
