<svg width="100" height="100" viewBox="0 0 100 100" fill="none" xmlns="http://www.w3.org/2000/svg">
<path d="M0 50C0 59.889 2.93245 69.556 8.42652 77.7785C13.9206 86.0009 21.7295 92.4096 30.8658 96.194C40.0021 99.9783 50.0555 100.968 59.7545 99.0392C69.4535 97.11 78.3627 92.3479 85.3553 85.3553C92.3479 78.3627 97.11 69.4535 99.0392 59.7545C100.968 50.0555 99.9783 40.0021 96.194 30.8658C92.4096 21.7295 86.0009 13.9206 77.7785 8.42652C69.556 2.93245 59.889 0 50 0C43.4339 0 36.9321 1.29329 30.8658 3.80602C24.7995 6.31876 19.2876 10.0017 14.6447 14.6447C5.26784 24.0215 0 36.7392 0 50ZM68 58.6C69.299 55.9181 69.9823 52.9799 70 50C70 44.6957 67.8928 39.6086 64.1421 35.8579C60.3914 32.1071 55.3043 30 50 30V40L34.4 25L50 10V20C57.9565 20 65.5871 23.1607 71.2132 28.7868C76.8393 34.4129 80 42.0435 80 50C80.01 55.6523 78.396 61.1886 75.35 65.95M20 50C19.9899 44.3476 21.6039 38.8114 24.65 34.05L32 41.4C30.701 44.0819 30.0177 47.0201 30 50C30 55.3043 32.1071 60.3914 35.8579 64.1421C39.6086 67.8928 44.6957 70 50 70V60L65 75L50 90V80C42.0435 80 34.4129 76.8393 28.7868 71.2132C23.1607 65.5871 20 57.9565 20 50Z" fill="#1A0AFD"/>
</svg>
